<?xml version="1.0" encoding="UTF-8" standalone="no"?><!DOCTYPE svg PUBLIC "-//W3C//DTD SVG 1.1//EN" "http://www.w3.org/Graphics/SVG/1.1/DTD/svg11.dtd"><svg width="100%" height="100%" viewBox="0 0 310 310" version="1.1" xmlns="http://www.w3.org/2000/svg" xmlns:xlink="http://www.w3.org/1999/xlink" xml:space="preserve" xmlns:serif="http://www.serif.com/" style="fill-rule:evenodd;clip-rule:evenodd;stroke-linejoin:round;stroke-miterlimit:2;"><g><path d="M12.879,266.037c26.092,33.397 109.013,7.95 187.298,-53.213c78.285,-61.163 123.036,-135.464 96.944,-168.861c-26.092,-33.397 -109.013,-7.95 -187.298,53.213c-78.285,61.163 -123.036,135.464 -96.944,168.861Zm11.147,-8.709c-8.654,-11.076 -4.873,-32.818 11.613,-60.189c17.36,-28.823 46.83,-60.64 82.893,-88.816c36.063,-28.176 74.065,-49.073 106.231,-58.944c30.547,-9.375 52.558,-7.783 61.211,3.293c8.654,11.076 4.873,32.818 -11.613,60.189c-17.36,28.823 -46.83,60.64 -82.893,88.816c-36.063,28.176 -74.065,49.073 -106.231,58.944c-30.547,9.375 -52.558,7.783 -61.211,-3.293Z" style="fill:#673ab8;fill-rule:nonzero;"/><path d="M297.121,266.037c26.092,-33.397 -18.659,-107.698 -96.944,-168.861c-78.285,-61.163 -161.206,-86.61 -187.298,-53.213c-26.092,33.397 18.659,107.698 96.944,168.861c78.285,61.163 161.206,86.61 187.298,53.213Zm-11.147,-8.709c-8.653,11.076 -30.664,12.668 -61.211,3.293c-32.166,-9.871 -70.168,-30.768 -106.231,-58.944c-36.063,-28.176 -65.533,-59.993 -82.893,-88.816c-16.486,-27.371 -20.267,-49.113 -11.613,-60.189c8.653,-11.076 30.664,-12.668 61.211,-3.293c32.166,9.871 70.168,30.768 106.231,58.944c36.063,28.176 65.533,59.993 82.893,88.816c16.486,27.371 20.267,49.113 11.613,60.189Z" style="fill:#673ab8;fill-rule:nonzero;"/><path d="M155,185.059c16.601,0 30.059,-13.458 30.059,-30.059c0,-16.601 -13.458,-30.059 -30.059,-30.059c-16.601,0 -30.059,13.458 -30.059,30.059c0,16.601 13.458,30.059 30.059,30.059Z" style="fill:#673ab8;fill-rule:nonzero;"/></g></svg>